<svg width="22" height="22" viewBox="0 0 22 22" fill="none" xmlns="http://www.w3.org/2000/svg">
<path d="M17.1314 6.81174C17.1007 6.81174 17.0803 6.81174 17.0496 6.81174H16.9984C15.0654 6.75037 13.6233 5.25711 13.6233 3.4161C13.6233 1.53418 15.1574 0.0102378 17.0291 0.0102378C18.9008 0.0102378 20.435 1.54441 20.435 3.4161C20.4248 5.26733 18.9826 6.7606 17.1416 6.82196C17.1416 6.81174 17.1416 6.81174 17.1314 6.81174ZM17.0291 1.53419C15.9961 1.53419 15.1574 2.37287 15.1574 3.40588C15.1574 4.41843 15.945 5.23666 16.9575 5.27757C16.9678 5.26734 17.0496 5.26734 17.1416 5.27757C18.1337 5.22643 18.9008 4.4082 18.911 3.40588C18.911 2.37287 18.0724 1.53419 17.0291 1.53419Z" fill="#111827"/>
<path d="M17.1418 14.3496C16.7429 14.3496 16.344 14.319 15.9452 14.2474C15.5258 14.1758 15.2497 13.7769 15.3213 13.3575C15.3929 12.9382 15.7917 12.6621 16.2111 12.7337C17.4691 12.9484 18.7987 12.7132 19.6885 12.12C20.1692 11.8029 20.4249 11.404 20.4249 11.0051C20.4249 10.6063 20.159 10.2176 19.6885 9.90054C18.7987 9.30733 17.4486 9.07209 16.1804 9.29711C15.7611 9.37893 15.3622 9.09255 15.2906 8.67321C15.219 8.25387 15.4951 7.85499 15.9145 7.78339C17.5816 7.48679 19.3101 7.80384 20.5374 8.62207C21.4375 9.22551 21.9591 10.0846 21.9591 11.0051C21.9591 11.9154 21.4477 12.7848 20.5374 13.3985C19.6067 14.0121 18.3998 14.3496 17.1418 14.3496Z" fill="#111827"/>
<path d="M4.82751 6.81173C4.81728 6.81173 4.80705 6.81173 4.80705 6.81173C2.96605 6.75036 1.52392 5.25709 1.5137 3.41609C1.5137 1.53417 3.04787 0 4.91956 0C6.79125 0 8.32542 1.53417 8.32542 3.40586C8.32542 5.2571 6.8833 6.75036 5.04229 6.81173L4.82751 6.04464L4.8991 6.81173C4.87865 6.81173 4.84796 6.81173 4.82751 6.81173ZM4.92979 5.27755C4.99115 5.27755 5.04229 5.27755 5.10366 5.28778C6.01393 5.24687 6.8117 4.42864 6.8117 3.41609C6.8117 2.38308 5.97302 1.54439 4.94002 1.54439C3.90701 1.54439 3.06832 2.38308 3.06832 3.41609C3.06832 4.41841 3.84564 5.22641 4.83773 5.28778C4.84796 5.27755 4.88887 5.27755 4.92979 5.27755Z" fill="#111827"/>
<path d="M4.8173 14.3496C3.55928 14.3496 2.3524 14.0121 1.42167 13.3985C0.521618 12.795 0 11.9257 0 11.0051C0 10.0949 0.521618 9.22551 1.42167 8.62207C2.649 7.80384 4.3775 7.48679 6.04464 7.78339C6.46398 7.85499 6.74013 8.25387 6.66853 8.67321C6.59694 9.09255 6.19805 9.37893 5.77871 9.29711C4.51047 9.07209 3.17062 9.30733 2.27058 9.90054C1.78987 10.2176 1.53417 10.6063 1.53417 11.0051C1.53417 11.404 1.8001 11.8029 2.27058 12.12C3.16039 12.7132 4.49001 12.9484 5.74803 12.7337C6.16737 12.6621 6.56626 12.9484 6.63785 13.3575C6.70945 13.7769 6.43329 14.1758 6.01395 14.2474C5.61507 14.319 5.21618 14.3496 4.8173 14.3496Z" fill="#111827"/>
<path d="M10.9947 14.4519C10.964 14.4519 10.9436 14.4519 10.9129 14.4519H10.8618C8.9287 14.3905 7.48658 12.8973 7.48658 11.0562C7.48658 9.17433 9.02075 7.65038 10.8924 7.65038C12.7641 7.65038 14.2983 9.18456 14.2983 11.0562C14.2881 12.9075 12.8459 14.4007 11.0049 14.4621C11.0049 14.4519 11.0049 14.4519 10.9947 14.4519ZM10.8924 9.17433C9.85943 9.17433 9.02075 10.013 9.02075 11.046C9.02075 12.0586 9.80829 12.8768 10.8208 12.9177C10.8311 12.9075 10.9129 12.9075 11.0049 12.9177C11.997 12.8666 12.7641 12.0483 12.7744 11.046C12.7744 10.0232 11.9357 9.17433 10.8924 9.17433Z" fill="#111827"/>
<path d="M10.9947 22C9.76734 22 8.54 21.6829 7.58882 21.0386C6.68877 20.4351 6.16715 19.576 6.16715 18.6555C6.16715 17.7452 6.67854 16.8656 7.58882 16.2622C9.50142 14.9939 12.4982 14.9939 14.4005 16.2622C15.3006 16.8656 15.8222 17.7248 15.8222 18.6453C15.8222 19.5555 15.3108 20.4351 14.4005 21.0386C13.4494 21.6727 12.222 22 10.9947 22ZM8.43773 17.5509C7.95702 17.868 7.70132 18.2668 7.70132 18.6657C7.70132 19.0646 7.96725 19.4533 8.43773 19.7703C9.81848 20.7011 12.1607 20.7011 13.5414 19.7703C14.0221 19.4533 14.2778 19.0544 14.2778 18.6555C14.2778 18.2566 14.0119 17.868 13.5414 17.5509C12.1709 16.6202 9.82871 16.6304 8.43773 17.5509Z" fill="#111827"/>
</svg>
