<svg width="19" height="22" viewBox="0 0 19 22" fill="none" xmlns="http://www.w3.org/2000/svg">
<path d="M9.46512 22C8.66698 22 7.8893 21.5907 7.35721 20.8744L6.32372 19.493C6.10884 19.2065 5.82233 19.0428 5.51535 19.0223C5.20837 19.0121 4.9014 19.1451 4.65581 19.4009L4.07256 18.8791L4.63535 19.4009C3.16186 20.9767 2.02605 20.854 1.48372 20.6391C0.931163 20.4242 0 19.7181 0 17.4465V5.92465C0 1.3814 1.30977 0 5.59721 0H13.333C17.6205 0 18.9302 1.3814 18.9302 5.92465V17.4465C18.9302 19.7079 17.9991 20.414 17.4465 20.6391C16.9042 20.854 15.7786 20.9767 14.2949 19.4009C14.0493 19.1349 13.7423 18.9916 13.4251 19.0223C13.1181 19.0428 12.8214 19.2065 12.6065 19.493L11.573 20.8744C11.0409 21.5907 10.2633 22 9.46512 22ZM5.45395 17.4772C5.49488 17.4772 5.54605 17.4772 5.58698 17.4772C6.34419 17.5181 7.06047 17.9172 7.5414 18.5619L8.57488 19.9433C9.07628 20.6084 9.84372 20.6084 10.3451 19.9433L11.3786 18.5619C11.8698 17.9172 12.5758 17.5181 13.3433 17.4772C14.1005 17.4363 14.8577 17.7535 15.4102 18.347C16.1879 19.1758 16.6893 19.2781 16.8735 19.2065C17.1191 19.1042 17.3851 18.5107 17.3851 17.4465V5.92465C17.3851 2.2307 16.7405 1.53488 13.3228 1.53488H5.59721C2.17954 1.53488 1.53488 2.2307 1.53488 5.92465V17.4465C1.53488 18.5209 1.80093 19.1144 2.04651 19.2065C2.22047 19.2781 2.73209 19.1758 3.50977 18.347C4.06233 17.7842 4.74791 17.4772 5.45395 17.4772Z" fill="#111827"/>
<path d="M13.7935 10.7442H8.16558C7.74605 10.7442 7.39814 10.3963 7.39814 9.97674C7.39814 9.55721 7.74605 9.2093 8.16558 9.2093H13.7935C14.213 9.2093 14.5609 9.55721 14.5609 9.97674C14.5609 10.3963 14.213 10.7442 13.7935 10.7442Z" fill="#111827"/>
<path d="M13.7935 6.65116H8.16558C7.74605 6.65116 7.39814 6.30326 7.39814 5.88372C7.39814 5.46419 7.74605 5.11628 8.16558 5.11628H13.7935C14.213 5.11628 14.5609 5.46419 14.5609 5.88372C14.5609 6.30326 14.213 6.65116 13.7935 6.65116Z" fill="#111827"/>
<path d="M5.14698 6.90698C4.58418 6.90698 4.12372 6.44651 4.12372 5.88372C4.12372 5.32093 4.58418 4.86047 5.14698 4.86047C5.70977 4.86047 6.17023 5.32093 6.17023 5.88372C6.17023 6.44651 5.70977 6.90698 5.14698 6.90698Z" fill="#111827"/>
<path d="M5.14698 11C4.58418 11 4.12372 10.5395 4.12372 9.97674C4.12372 9.41395 4.58418 8.95349 5.14698 8.95349C5.70977 8.95349 6.17023 9.41395 6.17023 9.97674C6.17023 10.5395 5.70977 11 5.14698 11Z" fill="#111827"/>
</svg>
