<svg width="22" height="22" viewBox="0 0 22 22" fill="none" xmlns="http://www.w3.org/2000/svg">
<path d="M14.0698 22H7.93023C2.37395 22 0 19.626 0 14.0698V7.93023C0 2.37395 2.37395 0 7.93023 0H14.0698C19.626 0 22 2.37395 22 7.93023V14.0698C22 19.626 19.626 22 14.0698 22ZM7.93023 1.53488C3.21302 1.53488 1.53488 3.21302 1.53488 7.93023V14.0698C1.53488 18.787 3.21302 20.4651 7.93023 20.4651H14.0698C18.787 20.4651 20.4651 18.787 20.4651 14.0698V7.93023C20.4651 3.21302 18.787 1.53488 14.0698 1.53488H7.93023Z" fill="#111827"/>
<path d="M14.6633 18.4186C14.2437 18.4186 13.8958 18.0707 13.8958 17.6512V13.6605C13.8958 13.2409 14.2437 12.893 14.6633 12.893C15.0828 12.893 15.4307 13.2409 15.4307 13.6605V17.6512C15.4307 18.0707 15.0828 18.4186 14.6633 18.4186Z" fill="#111827"/>
<path d="M14.6633 7.11163C14.2437 7.11163 13.8958 6.76372 13.8958 6.34419V4.34884C13.8958 3.9293 14.2437 3.5814 14.6633 3.5814C15.0828 3.5814 15.4307 3.9293 15.4307 4.34884V6.34419C15.4307 6.76372 15.0828 7.11163 14.6633 7.11163Z" fill="#111827"/>
<path d="M14.6633 12.4326C12.7702 12.4326 11.2353 10.8977 11.2353 9.00466C11.2353 7.11164 12.7702 5.57676 14.6633 5.57676C16.5563 5.57676 18.0912 7.11164 18.0912 9.00466C18.0912 10.8977 16.546 12.4326 14.6633 12.4326ZM14.6633 7.11164C13.6195 7.11164 12.7702 7.96094 12.7702 9.00466C12.7702 10.0484 13.6195 10.8977 14.6633 10.8977C15.707 10.8977 16.5563 10.0484 16.5563 9.00466C16.5563 7.96094 15.6967 7.11164 14.6633 7.11164Z" fill="#111827"/>
<path d="M7.33674 18.4186C6.91721 18.4186 6.5693 18.0707 6.5693 17.6512V15.6558C6.5693 15.2363 6.91721 14.8884 7.33674 14.8884C7.75628 14.8884 8.10418 15.2363 8.10418 15.6558V17.6512C8.10418 18.0707 7.76651 18.4186 7.33674 18.4186Z" fill="#111827"/>
<path d="M7.33674 9.10698C6.91721 9.10698 6.5693 8.75907 6.5693 8.33953V4.34884C6.5693 3.9293 6.91721 3.5814 7.33674 3.5814C7.75628 3.5814 8.10418 3.9293 8.10418 4.34884V8.33953C8.10418 8.75907 7.76651 9.10698 7.33674 9.10698Z" fill="#111827"/>
<path d="M7.33674 16.4233C5.44372 16.4233 3.90884 14.8884 3.90884 12.9954C3.90884 11.1023 5.44372 9.56745 7.33674 9.56745C9.22977 9.56745 10.7647 11.1023 10.7647 12.9954C10.7647 14.8884 9.22977 16.4233 7.33674 16.4233ZM7.33674 11.1023C6.29302 11.1023 5.44372 11.9516 5.44372 12.9954C5.44372 14.0391 6.29302 14.8884 7.33674 14.8884C8.38046 14.8884 9.22977 14.0391 9.22977 12.9954C9.22977 11.9516 8.3907 11.1023 7.33674 11.1023Z" fill="#111827"/>
</svg>
