<svg width="21" height="22" viewBox="0 0 21 22" fill="none" xmlns="http://www.w3.org/2000/svg">
<path d="M1.45154 10.0628V14.5946C1.45154 19.1264 3.2683 20.9432 7.8001 20.9432H13.2403C17.7721 20.9432 19.5888 19.1264 19.5888 14.5946V10.0628" stroke="#111827" stroke-width="1.5" stroke-linecap="round" stroke-linejoin="round"/>
<path d="M10.5252 10.8501C12.3723 10.8501 13.7348 9.3462 13.5532 7.49917L12.887 0.756982H8.17354L7.49731 7.49917C7.31563 9.3462 8.6782 10.8501 10.5252 10.8501Z" stroke="#111827" stroke-width="1.5" stroke-linecap="round" stroke-linejoin="round"/>
<path d="M16.894 10.8501C18.9328 10.8501 20.4266 9.1948 20.2247 7.16609L19.9421 4.39049C19.5787 1.76629 18.5694 0.756982 15.925 0.756982H12.8466L13.5532 7.83224C13.7247 9.4976 15.2286 10.8501 16.894 10.8501Z" stroke="#111827" stroke-width="1.5" stroke-linecap="round" stroke-linejoin="round"/>
<path d="M4.10603 10.8501C5.77139 10.8501 7.27526 9.4976 7.43675 7.83224L7.6588 5.60166L8.14326 0.756982H5.06487C2.42048 0.756982 1.41117 1.76629 1.04782 4.39049L0.775309 7.16609C0.573447 9.1948 2.06722 10.8501 4.10603 10.8501Z" stroke="#111827" stroke-width="1.5" stroke-linecap="round" stroke-linejoin="round"/>
<path d="M10.5252 15.8966C8.83969 15.8966 8.00196 16.7343 8.00196 18.4199V20.9432H13.0485V18.4199C13.0485 16.7343 12.2108 15.8966 10.5252 15.8966Z" stroke="#111827" stroke-width="1.5" stroke-linecap="round" stroke-linejoin="round"/>
</svg>
