<svg width="20" height="22" viewBox="0 0 20 22" fill="none" xmlns="http://www.w3.org/2000/svg">
<path d="M10 21.8547C9.31911 21.8547 8.62805 21.6819 8.01829 21.3262L1.98171 17.8404C0.762195 17.129 0 15.8181 0 14.4054V7.45427C0 6.04166 0.762195 4.73068 1.98171 4.0193L8.01829 0.533537C9.2378 -0.177846 10.752 -0.177846 11.9817 0.533537L18.0183 4.0193C19.2378 4.73068 20 6.04166 20 7.45427V14.4054C20 15.8181 19.2378 17.129 18.0183 17.8404L11.9817 21.3262C11.372 21.6819 10.6809 21.8547 10 21.8547ZM10 1.52945C9.58333 1.52945 9.1565 1.64125 8.78049 1.85466L2.7439 5.34043C1.99187 5.77742 1.52439 6.58028 1.52439 7.45427V14.4054C1.52439 15.2693 1.99187 16.0823 2.7439 16.5193L8.78049 20.0051C9.53252 20.442 10.4675 20.442 11.2195 20.0051L17.2561 16.5193C18.0081 16.0823 18.4756 15.2794 18.4756 14.4054V7.45427C18.4756 6.59044 18.0081 5.77742 17.2561 5.34043L11.2195 1.85466C10.8435 1.64125 10.4167 1.52945 10 1.52945Z" fill="#111827"/>
<path d="M9.99976 10.6759C8.27212 10.6759 6.86968 9.27342 6.86968 7.54578C6.86968 5.81814 8.27212 4.41574 9.99976 4.41574C11.7274 4.41574 13.1298 5.81814 13.1298 7.54578C13.1298 9.27342 11.7274 10.6759 9.99976 10.6759ZM9.99976 5.94013C9.11562 5.94013 8.39407 6.66164 8.39407 7.54578C8.39407 8.42993 9.11562 9.15149 9.99976 9.15149C10.8839 9.15149 11.6055 8.42993 11.6055 7.54578C11.6055 6.66164 10.8839 5.94013 9.99976 5.94013Z" fill="#111827"/>
<path d="M14.0649 16.4279C13.6482 16.4279 13.3027 16.0824 13.3027 15.6658C13.3027 14.2633 11.8189 13.115 9.99984 13.115C8.18074 13.115 6.697 14.2633 6.697 15.6658C6.697 16.0824 6.35147 16.4279 5.9348 16.4279C5.51813 16.4279 5.17261 16.0824 5.17261 15.6658C5.17261 13.4198 7.33724 11.5906 9.99984 11.5906C12.6624 11.5906 14.8271 13.4198 14.8271 15.6658C14.8271 16.0824 14.4815 16.4279 14.0649 16.4279Z" fill="#111827"/>
</svg>
