<svg width="22" height="22" viewBox="0 0 22 22" fill="none" xmlns="http://www.w3.org/2000/svg">
<path d="M21.2326 14.0698V7.93023C21.2326 2.81395 19.186 0.767442 14.0698 0.767442H7.93023C2.81395 0.767442 0.767442 2.81395 0.767442 7.93023V14.0698C0.767442 19.186 2.81395 21.2326 7.93023 21.2326H14.0698C19.186 21.2326 21.2326 19.186 21.2326 14.0698Z" stroke="#111827" stroke-width="1.5" stroke-linecap="round" stroke-linejoin="round"/>
<path d="M1.29954 5.99626H20.7005" stroke="#111827" stroke-width="1.5" stroke-linecap="round" stroke-linejoin="round"/>
<path d="M7.43907 0.879985V5.85301" stroke="#111827" stroke-width="1.5" stroke-linecap="round" stroke-linejoin="round"/>
<path d="M14.5609 0.879985V5.39254" stroke="#111827" stroke-width="1.5" stroke-linecap="round" stroke-linejoin="round"/>
<path d="M8.69767 13.507V12.2791C8.69767 10.7032 9.81302 10.0586 11.174 10.8465L12.2381 11.4605L13.3023 12.0744C14.6633 12.8623 14.6633 14.1516 13.3023 14.9395L12.2381 15.5535L11.174 16.1674C9.81302 16.9553 8.69767 16.3107 8.69767 14.7349V13.507V13.507Z" stroke="#111827" stroke-width="1.5" stroke-miterlimit="10" stroke-linecap="round" stroke-linejoin="round"/>
</svg>
